<svg xmlns="http://www.w3.org/2000/svg" style="display: ;">
    <symbol id="up-arrow" viewBox="0 0 32 32">
        <title>up-arrow</title>
        <g>
            <g>
                <path d="M256,0C114.833,0,0,114.833,0,256s114.833,256,256,256s256-114.853,256-256S397.167,0,256,0z M256,472.341 c-119.275,0-216.341-97.046-216.341-216.341S136.725,39.659,256,39.659c119.295,0,216.341,97.046,216.341,216.341 S375.275,472.341,256,472.341z" />
            </g>
        </g>
        <g>
            <g>
                <path d="M369.227,283.365l-99.148-99.148c-7.734-7.694-20.226-7.694-27.96,0l-99.148,99.148c-6.365,7.416-6.365,18.382,0,25.798 c7.119,8.309,19.651,9.28,27.96,2.161L256,226.256l85.267,85.069c7.734,7.694,20.226,7.694,27.96,0 C376.921,303.591,376.921,291.098,369.227,283.365z" />
            </g>
        </g>
    </symbol>
    <symbol id="up-arrow-1" viewBox="0 0 512 512">
        <title>up-arrow-1</title>
        <g xmlns="http://www.w3.org/2000/svg">
            <circle style="" cx="256" cy="256" r="236.17" fill="#d13a3a" data-original="#1138f7" class="" />
            <path style="" d="M256,512C114.853,512,0,397.167,0,256C0,114.853,114.853,0,256,0c141.167,0,256,114.853,256,256 C512,397.167,397.167,512,256,512z M256,39.659C136.705,39.659,39.659,136.705,39.659,256S136.705,472.341,256,472.341 S472.341,375.275,472.341,256C472.341,136.705,375.295,39.659,256,39.659z" fill="#d13a3a" data-original="#1138f7" class="" />
        </g>
        <path xmlns="http://www.w3.org/2000/svg" style="" d="M369.227,311.126c-7.734,7.694-20.226,7.694-27.96,0l-85.069-85.069l-85.069,85.069 c-8.309,7.119-20.841,6.147-27.96-2.161c-6.365-7.416-6.365-18.382,0-25.798l99.148-99.148c7.734-7.694,20.226-7.694,27.96,0 l99.148,99.148C377.06,290.96,376.98,303.452,369.227,311.126z" fill="#ffffff" data-original="#ffffff" class="" />
    </symbol>
    <symbol id="up-arrow-2" viewBox="0 0 512 512">
        <title>up-arrow-2</title>
        <g xmlns="http://www.w3.org/2000/svg">
            <circle style="" cx="256" cy="256" r="236.17" fill="#29b714" data-original="#1138f7" />
            <path style="" d="M256,512C114.853,512,0,397.167,0,256C0,114.853,114.853,0,256,0c141.167,0,256,114.853,256,256 C512,397.167,397.167,512,256,512z M256,39.659C136.705,39.659,39.659,136.705,39.659,256S136.705,472.341,256,472.341 S472.341,375.275,472.341,256C472.341,136.705,375.295,39.659,256,39.659z" fill="#29b714" data-original="#1138f7" />
        </g>
        <path xmlns="http://www.w3.org/2000/svg" style="" d="M369.227,311.126c-7.734,7.694-20.226,7.694-27.96,0l-85.069-85.069l-85.069,85.069 c-8.309,7.119-20.841,6.147-27.96-2.161c-6.365-7.416-6.365-18.382,0-25.798l99.148-99.148c7.734-7.694,20.226-7.694,27.96,0 l99.148,99.148C377.06,290.96,376.98,303.452,369.227,311.126z" fill="#ffffff" data-original="#ffffff" />
    </symbol>
</svg>